<svg xmlns="http://www.w3.org/2000/svg" xmlns:xlink="http://www.w3.org/1999/xlink" width="65" height="65" viewBox="0 0 65 65"><defs><clipPath id="a"><rect width="40" height="35" transform="translate(0 0.391)" fill="none"/></clipPath></defs><g transform="translate(-182 -995)"><circle cx="32.5" cy="32.5" r="32.5" transform="translate(182 995)" fill="#d1f7ff"/><g transform="translate(195 1009.819)"><g transform="translate(0 -0.21)" clip-path="url(#a)"><path d="M36.31,0H3.3A3.3,3.3,0,0,0,0,3.3V25.307a3.3,3.3,0,0,0,3.3,3.3H16.5l-1.1,3.3H10.453a1.65,1.65,0,1,0,0,3.3h18.7a1.65,1.65,0,1,0,0-3.3H24.206l-1.1-3.3h13.2a3.3,3.3,0,0,0,3.3-3.3V3.3A3.3,3.3,0,0,0,36.31,0m-1.1,24.206H4.4V4.4H35.209Z" transform="translate(0 0.182)" fill="#6fa7b3"/><path d="M229.325,122.944h2.559a1.1,1.1,0,0,1,1.1,1.1v4.752h-8.774v-4.752a1.1,1.1,0,0,1,1.1-1.1h.366l.731,1.462.731-1.462h.731l.731,1.462Zm3.656,6.58v.731a1.464,1.464,0,0,1-1.462,1.462h-1.462v1.462a1.462,1.462,0,0,1-2.925,0v-1.462h-1.462a1.463,1.463,0,0,1-1.462-1.462v-.731Zm-4.387,4.021a.366.366,0,1,0-.366-.366.367.367,0,0,0,.366.366" transform="translate(-208.789 -114.308)" fill="#6fa7b3"/></g></g></g></svg>