<svg xmlns="http://www.w3.org/2000/svg" xmlns:xlink="http://www.w3.org/1999/xlink" width="65" height="65" viewBox="0 0 65 65"><defs><clipPath id="a"><rect width="33.414" height="29.24" fill="none"/></clipPath></defs><g transform="translate(-182 -732)"><circle cx="32.5" cy="32.5" r="32.5" transform="translate(182 732)" fill="#d1f7ff"/><g transform="translate(197.293 749.88)"><g clip-path="url(#a)"><path d="M16.71,0Q22.825,0,28.94,0a4.5,4.5,0,0,1,2.224.5A4,4,0,0,1,33.4,4.171q.032,10.446,0,20.892a4.175,4.175,0,0,1-4.369,4.172q-7.943.01-15.887,0c-2.916,0-5.832.006-8.749,0a4.233,4.233,0,0,1-4.39-4.3Q0,14.623.009,4.307A4.2,4.2,0,0,1,4.392,0Q10.551-.008,16.71,0m-6.5,14.621c.161-.148.286-.265.414-.379,1.121-1.01,2.247-2.014,3.362-3.031a1.592,1.592,0,1,0-2.1-2.377q-2.466,2.2-4.919,4.423a1.619,1.619,0,0,0,.011,2.733Q9.39,18.159,11.8,20.325a2.614,2.614,0,0,0,.6.419,1.5,1.5,0,0,0,1.667-.231,1.335,1.335,0,0,0,.514-1.471A2.485,2.485,0,0,0,13.935,18c-1.2-1.133-2.446-2.224-3.725-3.376m13.01,0c-1.255,1.13-2.466,2.213-3.667,3.307a2.9,2.9,0,0,0-.532.625,1.488,1.488,0,0,0,.535,2.108,1.586,1.586,0,0,0,2-.266c1.31-1.169,2.612-2.348,3.917-3.523.377-.34.762-.673,1.13-1.022a1.556,1.556,0,0,0-.009-2.47l-.032-.03c-1.672-1.505-3.336-3.018-5.018-4.512a1.579,1.579,0,0,0-2.707.745,1.659,1.659,0,0,0,.666,1.685c1.223,1.11,2.454,2.212,3.722,3.353" transform="translate(0 0)" fill="#6fa7b3"/><path d="M39.715,54.219c1.278,1.152,2.522,2.243,3.725,3.376a2.483,2.483,0,0,1,.651,1.044,1.335,1.335,0,0,1-.514,1.471,1.5,1.5,0,0,1-1.667.231,2.618,2.618,0,0,1-.6-.419q-2.417-2.161-4.823-4.334a1.62,1.62,0,0,1-.011-2.733q2.459-2.212,4.919-4.423a1.592,1.592,0,1,1,2.1,2.377c-1.115,1.017-2.241,2.021-3.362,3.031-.127.114-.252.231-.413.379" transform="translate(-29.505 -39.597)" fill="#fff"/><path d="M112.294,54.173c-1.267-1.14-2.5-2.242-3.722-3.353a1.659,1.659,0,0,1-.666-1.685,1.579,1.579,0,0,1,2.707-.745c1.682,1.494,3.346,3.007,5.018,4.512l.032.03a1.556,1.556,0,0,1,.009,2.47c-.369.35-.753.682-1.13,1.022-1.305,1.175-2.607,2.354-3.917,3.523a1.586,1.586,0,0,1-2,.266,1.488,1.488,0,0,1-.535-2.108,2.9,2.9,0,0,1,.532-.625c1.2-1.094,2.412-2.178,3.667-3.307" transform="translate(-89.074 -39.553)" fill="#fff"/></g></g></g></svg>