<svg xmlns="http://www.w3.org/2000/svg" xmlns:xlink="http://www.w3.org/1999/xlink" width="65" height="65" viewBox="0 0 65 65"><defs><clipPath id="a"><rect width="39" height="31" fill="none"/></clipPath></defs><g transform="translate(-182 -878)"><circle cx="32.5" cy="32.5" r="32.5" transform="translate(182 878)" fill="#d1f7ff"/><g transform="translate(195 895)"><g clip-path="url(#a)"><path d="M24.09,0a2.891,2.891,0,0,1,2.891,2.891V8.672a2.892,2.892,0,0,1-2.891,2.891H21.2V13.49H36.617a1.927,1.927,0,0,1,0,3.854H30.835v1.927h2.891a2.892,2.892,0,0,1,2.891,2.891v5.782a2.892,2.892,0,0,1-2.891,2.891H24.09A2.892,2.892,0,0,1,21.2,27.944V22.163a2.892,2.892,0,0,1,2.891-2.891h2.891V17.345H11.563v1.927h2.891a2.892,2.892,0,0,1,2.891,2.891v5.782a2.892,2.892,0,0,1-2.891,2.891H4.818a2.891,2.891,0,0,1-2.891-2.891V22.163a2.891,2.891,0,0,1,2.891-2.891H7.709V17.345H1.927a1.927,1.927,0,1,1,0-3.854H17.345V11.563H14.454a2.892,2.892,0,0,1-2.891-2.891V2.891A2.891,2.891,0,0,1,14.454,0ZM15.418,7.709h7.709V3.854H15.418ZM13.49,23.126H5.782v3.854H13.49Zm11.563,3.854h7.709V23.126H25.053Z" fill="#6fa7b3"/></g></g></g></svg>