<?xml version="1.0" encoding="UTF-8"?><svg id="Layer_2" xmlns="http://www.w3.org/2000/svg" viewBox="0 0 523.14 468.68"><defs><style>.cls-1{fill:#d1f7ff;}.cls-2{fill:#6fa7b3;}.cls-3{fill:#296eb4;}.cls-4{fill:#473d33;}</style></defs><g id="karlivare-logo"><path class="cls-3" d="M295.92,160.65c-1.48-2.98-1.68-5.77-.84-8.23,7.01-20.42,8.26-41.15,5.71-62.59-4.12-34.6-27.13-65.49-61.87-73.33-27.16-6.13-64.38,7.69-79.23,31.33-17.22,27.39-15.12,56.82-8.46,86.55,2.79,12.48,6.32,24.78,11.89,36.4,.96,1.99,1.79,4.81-.04,6.76-1.53,1.63-3.99,1.3-5.85,.3-10.37-5.53-21.87-7.72-33.03-10.58-26.73-6.85-53.69-9.27-79.9,2.1C18.18,180.71,2.69,200.75,.24,229.26c-2.24,26.08,11.23,44.79,31.76,58.91,25.49,17.53,54.88,22.15,84.84,24.21,12.46,.86,12.44,.51,6.6,11.65-13.76,26.28-23.05,53.88-20.61,83.93,1.73,21.29,10.54,39.98,28.93,51.9,24.8,16.08,58.46,9.56,78.71-14.63,17.89-21.37,30.26-45.42,32.78-73.76,.23-2.57,.75-6.51,2.36-7.28,3.3-1.59,4.92,2.57,6.81,4.49,10.44,10.56,21.31,20.6,33.79,28.69,21.48,13.92,43.77,25.39,70.64,23.39,33.63-2.5,55.33-35.14,45.47-67.39-7.98-26.11-22.37-47.48-43.23-64.77-1.74-1.44-4.93-2.55-3.79-5.26,.54-1.29,3.59-1.91,5.59-2.16,19.77-2.46,37.98-9.51,55.48-18.64,27.84-14.52,37.19-38.87,26.63-66.19-18.5-47.86-71.09-61.93-111.76-49.84-12.25,3.64-23.33,9.95-35.33,14.15Z"/><path class="cls-2" d="M295.92,160.65c12-4.19,23.08-10.5,35.33-14.15,40.67-12.09,93.26,1.98,111.76,49.84,10.56,27.32,1.2,51.67-26.63,66.19-17.5,9.12-35.71,16.18-55.48,18.64-2,.25-5.05,.87-5.59,2.16-1.13,2.72,2.05,3.82,3.79,5.26,20.86,17.3,35.25,38.66,43.23,64.77,9.86,32.25-11.85,64.89-45.47,67.39-26.87,2-49.16-9.47-70.64-23.39-12.48-8.09-23.35-18.14-33.79-28.69-1.9-1.92-3.51-6.08-6.81-4.49-1.61,.78-2.13,4.71-2.36,7.28-2.52,28.34-14.89,52.39-32.78,73.76-20.25,24.18-53.91,30.7-78.71,14.63-18.38-11.92-27.2-30.61-28.93-51.9-2.44-30.05,6.84-57.64,20.61-83.93,5.83-11.14,5.86-10.79-6.6-11.65-29.96-2.06-59.35-6.68-84.84-24.21C11.48,274.05-2,255.35,.24,229.26c2.45-28.51,17.94-48.55,44.05-59.89,26.21-11.38,53.17-8.95,79.9-2.1,11.16,2.86,22.66,5.05,33.03,10.58,1.87,1,4.32,1.33,5.85-.3,1.83-1.95,1-4.77,.04-6.76-5.58-11.63-9.1-23.92-11.89-36.4-6.65-29.73-8.76-59.16,8.46-86.55,14.86-23.63,52.07-37.46,79.23-31.33,34.74,7.84,57.75,38.73,61.87,73.33,2.55,21.45,1.3,42.17-5.71,62.59-.84,2.46-.64,5.24,.84,8.23Zm-73.63,123.45c19.51,.21,38.21-16.69,38.45-34.74,.23-17.28-14.74-31.68-32.89-31.67-19.76,.01-38.61,16.91-38.71,34.7-.09,16.86,15.23,31.52,33.15,31.72Z"/><path class="cls-1" d="M260.74,249.36c-.24,18.05-18.94,34.95-38.45,34.74-17.91-.19-33.24-14.85-33.15-31.71,.1-17.79,18.95-34.69,38.71-34.7,18.15-.02,33.12,14.39,32.89,31.67Z"/><g><path class="cls-2" d="M447.11,32.46c2.66-3.59,4.63-7.62,7.47-11.1,9.43-11.56,27.5-17.86,42.34-7.6,8.47,5.86,10.57,14.78,5.34,24.51-3.28,6.11-7.18,11.76-12.44,16.39-.53,.47-1.3,1.25-1.2,1.73,.21,1.01,1.35,.71,2.14,.78,9.48,.9,17.89,4.27,25.37,10.28,9.24,7.42,9.38,21.21,.1,28.58-7.42,5.89-16.16,6.97-25.16,7.16-5.23,.12-10.37-.66-15.5-1.66-.93-.18-2.22-1.07-2.87,.04-.31,.54,.31,1.79,.75,2.58,4.87,8.74,6.03,18.17,5.05,27.92-1.1,11.03-9.6,19.58-19.99,19.81-7.7,.17-13.96-3.52-18.67-9.37-6.65-8.25-9.41-18.11-10.6-28.47-.51-4.39-.43-4.3-4.22-2.08-9.12,5.32-18.57,9.79-29.45,9.73-8.76-.05-16.37-2.82-20.88-10.85-4.92-8.77-4.38-17.66,.97-26.12,5.37-8.49,13.69-13.11,22.81-16.41,3.81-1.38,7.58-3.01,11.69-3.45,.74-.08,1.52-.47,1.64-1.24,.15-.93-.65-1.58-1.33-1.97-3.92-2.28-7.37-5.16-10.65-8.23-7.81-7.33-14.24-15.47-14.65-26.83-.35-9.81,7.73-21.18,16.84-24.77,11.65-4.59,24.44-.16,32.48,9.09,4.98,5.73,8.72,12,10.71,19.32,.24,.88,.85,1.65,1.87,2.23Zm3,50.44c5.71-3.79,7.81-12.41,4.31-17.7-3.35-5.07-10.55-6.3-15.82-2.7-5.74,3.91-7.88,12.55-4.39,17.74,3.31,4.92,10.66,6.15,15.91,2.67Z"/><path class="cls-1" d="M454.42,65.21c3.5,5.29,1.4,13.9-4.31,17.7-5.25,3.49-12.6,2.25-15.91-2.67-3.49-5.19-1.35-13.83,4.39-17.74,5.27-3.59,12.47-2.36,15.82,2.7Z"/></g><g><path class="cls-4" d="M69.76,138.54l-37.33-19.87,8.08,28.63-6.43,3.42L12.6,74.6l6.85-1.93,12.66,44.89,20.96-30.89,9.35-2.64-21.41,31.42,37.12,22.29-8.37,.81Z"/><path class="cls-4" d="M123.14,84.14l-25.21,54.23-1.44-.14-25.27-54.1h8.27l17.69,39.91,17.69-39.91h8.27Z"/></g></g></svg>